<?xml version="1.0" encoding="UTF-8" standalone="no"?>
<!-- Created with Inkscape (http://www.inkscape.org/) -->

<svg
   xmlns:dc="http://purl.org/dc/elements/1.1/"
   xmlns:cc="http://creativecommons.org/ns#"
   xmlns:rdf="http://www.w3.org/1999/02/22-rdf-syntax-ns#"
   xmlns:svg="http://www.w3.org/2000/svg"
   xmlns="http://www.w3.org/2000/svg"
   xmlns:sodipodi="http://sodipodi.sourceforge.net/DTD/sodipodi-0.dtd"
   xmlns:inkscape="http://www.inkscape.org/namespaces/inkscape"
   version="1.1"
   id="svg29"
   xml:space="preserve"
   width="511.99997"
   height="236.99998"
   viewBox="0 0 511.99997 236.99998"
   sodipodi:docname="C4_table-completed.svg"
   inkscape:version="0.92.3 (2405546, 2018-03-11)"><metadata
     id="metadata35"><rdf:RDF><cc:Work
         rdf:about=""><dc:format>image/svg+xml</dc:format><dc:type
           rdf:resource="http://purl.org/dc/dcmitype/StillImage" /><dc:title></dc:title></cc:Work></rdf:RDF></metadata><defs
     id="defs33"><clipPath
       clipPathUnits="userSpaceOnUse"
       id="clipPath63"><path
         d="m 343,20 h 40 v 20 h -40 z"
         id="path61"
         inkscape:connector-curvature="0" /></clipPath><clipPath
       clipPathUnits="userSpaceOnUse"
       id="clipPath91"><path
         d="m 343,60 h 40 v 20 h -40 z"
         id="path89"
         inkscape:connector-curvature="0" /></clipPath><clipPath
       clipPathUnits="userSpaceOnUse"
       id="clipPath119"><path
         d="m 343,99 h 40 v 20 h -40 z"
         id="path117"
         inkscape:connector-curvature="0" /></clipPath><clipPath
       clipPathUnits="userSpaceOnUse"
       id="clipPath147"><path
         d="m 343,138 h 40 v 20 h -40 z"
         id="path145"
         inkscape:connector-curvature="0" /></clipPath><clipPath
       clipPathUnits="userSpaceOnUse"
       id="clipPath157"><path
         d="m 343,39 h 40 v 2 h -40 z"
         id="path155"
         inkscape:connector-curvature="0" /></clipPath><clipPath
       clipPathUnits="userSpaceOnUse"
       id="clipPath185"><path
         d="m 303,0 h 80 v 1 h -80 z"
         id="path183"
         inkscape:connector-curvature="0" /></clipPath><clipPath
       clipPathUnits="userSpaceOnUse"
       id="clipPath237"><path
         d="m 27,159 h 16 v 18 H 27 Z"
         id="path235"
         inkscape:connector-curvature="0" /></clipPath></defs><sodipodi:namedview
     pagecolor="#ffffff"
     bordercolor="#666666"
     borderopacity="1"
     objecttolerance="10"
     gridtolerance="10"
     guidetolerance="10"
     inkscape:pageopacity="0"
     inkscape:pageshadow="2"
     inkscape:window-width="1366"
     inkscape:window-height="720"
     id="namedview31"
     showgrid="false"
     inkscape:zoom="2.2447259"
     inkscape:cx="255.99998"
     inkscape:cy="118.49999"
     inkscape:window-x="0"
     inkscape:window-y="0"
     inkscape:window-maximized="1"
     inkscape:current-layer="g37" /><g
     id="g37"
     inkscape:groupmode="layer"
     inkscape:label="C4_table-completed"
     transform="matrix(1.3333333,0,0,1.3333333,0,5.9249996e-6)"><g
       id="g39"><path
         d="m 0,20.25 h 60 v 19.5 H 0 Z"
         style="fill:#ffffff;fill-opacity:1;fill-rule:nonzero;stroke:none"
         id="path41"
         inkscape:connector-curvature="0" /><path
         d="m 60,20.25 h 40.5 v 19.5 H 60 Z"
         style="fill:#ffffff;fill-opacity:1;fill-rule:nonzero;stroke:none"
         id="path43"
         inkscape:connector-curvature="0" /><path
         d="M 100.5,20.25 H 141 v 19.5 h -40.5 z"
         style="fill:#ffffff;fill-opacity:1;fill-rule:nonzero;stroke:none"
         id="path45"
         inkscape:connector-curvature="0" /><path
         d="m 141,20.25 h 40.5 v 19.5 H 141 Z"
         style="fill:#ffffff;fill-opacity:1;fill-rule:nonzero;stroke:none"
         id="path47"
         inkscape:connector-curvature="0" /><path
         d="M 181.5,20.25 H 222 v 19.5 h -40.5 z"
         style="fill:#ffffff;fill-opacity:1;fill-rule:nonzero;stroke:none"
         id="path49"
         inkscape:connector-curvature="0" /><path
         d="m 222,20.25 h 40.5 v 19.5 H 222 Z"
         style="fill:#ffffff;fill-opacity:1;fill-rule:nonzero;stroke:none"
         id="path51"
         inkscape:connector-curvature="0" /><path
         d="M 262.5,20.25 H 303 v 19.5 h -40.5 z"
         style="fill:#ffffff;fill-opacity:1;fill-rule:nonzero;stroke:none"
         id="path53"
         inkscape:connector-curvature="0" /><path
         d="m 303,20.25 h 40.5 v 19.5 H 303 Z"
         style="fill:#ffffff;fill-opacity:1;fill-rule:nonzero;stroke:none"
         id="path55"
         inkscape:connector-curvature="0" /></g><g
       id="g57"><g
         id="g59"
         clip-path="url(#clipPath63)"><path
           d="M 343.5,20.25 H 384 v 19.5 h -40.5 z"
           style="fill:#ffffff;fill-opacity:1;fill-rule:nonzero;stroke:none"
           id="path65"
           inkscape:connector-curvature="0" /></g></g><g
       id="g67"><path
         d="M 0,60 H 60 V 79.5 H 0 Z"
         style="fill:#ffffff;fill-opacity:1;fill-rule:nonzero;stroke:none"
         id="path69"
         inkscape:connector-curvature="0" /><path
         d="m 60,60 h 40.5 V 79.5 H 60 Z"
         style="fill:#ffffff;fill-opacity:1;fill-rule:nonzero;stroke:none"
         id="path71"
         inkscape:connector-curvature="0" /><path
         d="M 100.5,60 H 141 v 19.5 h -40.5 z"
         style="fill:#ffffff;fill-opacity:1;fill-rule:nonzero;stroke:none"
         id="path73"
         inkscape:connector-curvature="0" /><path
         d="m 141,60 h 40.5 V 79.5 H 141 Z"
         style="fill:#ffffff;fill-opacity:1;fill-rule:nonzero;stroke:none"
         id="path75"
         inkscape:connector-curvature="0" /><path
         d="M 181.5,60 H 222 v 19.5 h -40.5 z"
         style="fill:#ffffff;fill-opacity:1;fill-rule:nonzero;stroke:none"
         id="path77"
         inkscape:connector-curvature="0" /><path
         d="m 222,60 h 40.5 V 79.5 H 222 Z"
         style="fill:#ffffff;fill-opacity:1;fill-rule:nonzero;stroke:none"
         id="path79"
         inkscape:connector-curvature="0" /><path
         d="M 262.5,60 H 303 v 19.5 h -40.5 z"
         style="fill:#ffffff;fill-opacity:1;fill-rule:nonzero;stroke:none"
         id="path81"
         inkscape:connector-curvature="0" /><path
         d="m 303,60 h 40.5 V 79.5 H 303 Z"
         style="fill:#ffffff;fill-opacity:1;fill-rule:nonzero;stroke:none"
         id="path83"
         inkscape:connector-curvature="0" /></g><g
       id="g85"><g
         id="g87"
         clip-path="url(#clipPath91)"><path
           d="M 343.5,60 H 384 v 19.5 h -40.5 z"
           style="fill:#ffffff;fill-opacity:1;fill-rule:nonzero;stroke:none"
           id="path93"
           inkscape:connector-curvature="0" /></g></g><g
       id="g95"><path
         d="m 0,99 h 60 v 19.5 H 0 Z"
         style="fill:#ffffff;fill-opacity:1;fill-rule:nonzero;stroke:none"
         id="path97"
         inkscape:connector-curvature="0" /><path
         d="m 60,99 h 40.5 v 19.5 H 60 Z"
         style="fill:#ffffff;fill-opacity:1;fill-rule:nonzero;stroke:none"
         id="path99"
         inkscape:connector-curvature="0" /><path
         d="M 100.5,99 H 141 v 19.5 h -40.5 z"
         style="fill:#ffffff;fill-opacity:1;fill-rule:nonzero;stroke:none"
         id="path101"
         inkscape:connector-curvature="0" /><path
         d="m 141,99 h 40.5 v 19.5 H 141 Z"
         style="fill:#ffffff;fill-opacity:1;fill-rule:nonzero;stroke:none"
         id="path103"
         inkscape:connector-curvature="0" /><path
         d="M 181.5,99 H 222 v 19.5 h -40.5 z"
         style="fill:#ffffff;fill-opacity:1;fill-rule:nonzero;stroke:none"
         id="path105"
         inkscape:connector-curvature="0" /><path
         d="m 222,99 h 40.5 v 19.5 H 222 Z"
         style="fill:#ffffff;fill-opacity:1;fill-rule:nonzero;stroke:none"
         id="path107"
         inkscape:connector-curvature="0" /><path
         d="M 262.5,99 H 303 v 19.5 h -40.5 z"
         style="fill:#ffffff;fill-opacity:1;fill-rule:nonzero;stroke:none"
         id="path109"
         inkscape:connector-curvature="0" /><path
         d="m 303,99 h 40.5 v 19.5 H 303 Z"
         style="fill:#ffffff;fill-opacity:1;fill-rule:nonzero;stroke:none"
         id="path111"
         inkscape:connector-curvature="0" /></g><g
       id="g113"><g
         id="g115"
         clip-path="url(#clipPath119)"><path
           d="M 343.5,99 H 384 v 19.5 h -40.5 z"
           style="fill:#ffffff;fill-opacity:1;fill-rule:nonzero;stroke:none"
           id="path121"
           inkscape:connector-curvature="0" /></g></g><g
       id="g123"><path
         d="m 0,138 h 60 v 19.5 H 0 Z"
         style="fill:#ffffff;fill-opacity:1;fill-rule:nonzero;stroke:none"
         id="path125"
         inkscape:connector-curvature="0" /><path
         d="m 60,138 h 40.5 v 19.5 H 60 Z"
         style="fill:#ffffff;fill-opacity:1;fill-rule:nonzero;stroke:none"
         id="path127"
         inkscape:connector-curvature="0" /><path
         d="M 100.5,138 H 141 v 19.5 h -40.5 z"
         style="fill:#ffffff;fill-opacity:1;fill-rule:nonzero;stroke:none"
         id="path129"
         inkscape:connector-curvature="0" /><path
         d="m 141,138 h 40.5 v 19.5 H 141 Z"
         style="fill:#ffffff;fill-opacity:1;fill-rule:nonzero;stroke:none"
         id="path131"
         inkscape:connector-curvature="0" /><path
         d="M 181.5,138 H 222 v 19.5 h -40.5 z"
         style="fill:#ffffff;fill-opacity:1;fill-rule:nonzero;stroke:none"
         id="path133"
         inkscape:connector-curvature="0" /><path
         d="m 222,138 h 40.5 v 19.5 H 222 Z"
         style="fill:#ffffff;fill-opacity:1;fill-rule:nonzero;stroke:none"
         id="path135"
         inkscape:connector-curvature="0" /><path
         d="M 262.5,138 H 303 v 19.5 h -40.5 z"
         style="fill:#ffffff;fill-opacity:1;fill-rule:nonzero;stroke:none"
         id="path137"
         inkscape:connector-curvature="0" /><path
         d="m 303,138 h 40.5 v 19.5 H 303 Z"
         style="fill:#ffffff;fill-opacity:1;fill-rule:nonzero;stroke:none"
         id="path139"
         inkscape:connector-curvature="0" /></g><g
       id="g141"><g
         id="g143"
         clip-path="url(#clipPath147)"><path
           d="M 343.5,138 H 384 v 19.5 h -40.5 z"
           style="fill:#ffffff;fill-opacity:1;fill-rule:nonzero;stroke:none"
           id="path149"
           inkscape:connector-curvature="0" /></g></g><g
       id="g151"><g
         id="g153"
         clip-path="url(#clipPath157)"><path
           d="M 343.5,39.75 H 384 v 0.75 h -40.5 z"
           style="fill:#000000;fill-opacity:1;fill-rule:nonzero;stroke:none"
           id="path159"
           inkscape:connector-curvature="0" /></g></g><g
       id="g161"><path
         d="m 303,39.75 h 40.5 V 40.5 H 303 Z"
         style="fill:#000000;fill-opacity:1;fill-rule:nonzero;stroke:none"
         id="path163"
         inkscape:connector-curvature="0" /><path
         d="M 262.5,39.75 H 303 v 0.75 h -40.5 z"
         style="fill:#000000;fill-opacity:1;fill-rule:nonzero;stroke:none"
         id="path165"
         inkscape:connector-curvature="0" /><path
         d="m 222,39.75 h 40.5 V 40.5 H 222 Z"
         style="fill:#000000;fill-opacity:1;fill-rule:nonzero;stroke:none"
         id="path167"
         inkscape:connector-curvature="0" /><path
         d="M 181.5,39.75 H 222 v 0.75 h -40.5 z"
         style="fill:#000000;fill-opacity:1;fill-rule:nonzero;stroke:none"
         id="path169"
         inkscape:connector-curvature="0" /><path
         d="m 141,39.75 h 40.5 V 40.5 H 141 Z"
         style="fill:#000000;fill-opacity:1;fill-rule:nonzero;stroke:none"
         id="path171"
         inkscape:connector-curvature="0" /><path
         d="M 100.5,39.75 H 141 v 0.75 h -40.5 z"
         style="fill:#000000;fill-opacity:1;fill-rule:nonzero;stroke:none"
         id="path173"
         inkscape:connector-curvature="0" /><path
         d="m 60,39.75 h 40.5 V 40.5 H 60 Z"
         style="fill:#000000;fill-opacity:1;fill-rule:nonzero;stroke:none"
         id="path175"
         inkscape:connector-curvature="0" /><path
         d="M 0,39.75 H 60 V 40.5 H 0 Z"
         style="fill:#000000;fill-opacity:1;fill-rule:nonzero;stroke:none"
         id="path177"
         inkscape:connector-curvature="0" /></g><g
       id="g179"><g
         id="g181"
         clip-path="url(#clipPath185)"><path
           d="m 303,0 h 81 v 0.75 h -81 z"
           style="fill:#000000;fill-opacity:1;fill-rule:nonzero;stroke:none"
           id="path187"
           inkscape:connector-curvature="0" /></g></g><g
       id="g189"><path
         d="m 222,0 h 81 v 0.75 h -81 z"
         style="fill:#000000;fill-opacity:1;fill-rule:nonzero;stroke:none"
         id="path191"
         inkscape:connector-curvature="0" /><path
         d="m 141,0 h 81 v 0.75 h -81 z"
         style="fill:#000000;fill-opacity:1;fill-rule:nonzero;stroke:none"
         id="path193"
         inkscape:connector-curvature="0" /><path
         d="m 60,0 h 81 V 0.75 H 60 Z"
         style="fill:#000000;fill-opacity:1;fill-rule:nonzero;stroke:none"
         id="path195"
         inkscape:connector-curvature="0" /><path
         d="M 0,0 H 60 V 0.75 H 0 Z"
         style="fill:#000000;fill-opacity:1;fill-rule:nonzero;stroke:none"
         id="path197"
         inkscape:connector-curvature="0" /><text
         transform="translate(6,14.249992)"
         style="font-variant:normal;font-size:11.99999905px;font-family:CairoFont-0;-inkscape-font-specification:CairoFont-0-0;writing-mode:lr-tb;fill:#000000;fill-opacity:1;fill-rule:nonzero;stroke:none"
         id="text217"><tspan
           x="0 7.9919991 13.307999 19.307999 25.307999 30.587997 35.255997 82.247993 88.919991 94.235992 97.55999 100.55999 163.19998 169.87198 175.18799 178.51198 181.51198 244.33589 251.00789 256.32388 259.64789 262.64789 325.28787 331.95987 337.27588 340.59988 343.59988"
           y="0"
           sodipodi:role="line"
           id="tspan199">RequestSet 0Set 1Set 2Set 3</tspan><tspan
           x="59.999985 66.671982 69.995979 75.995979 79.319984 82.319984 100.45198 107.12398 110.44798 116.44798 119.77198 122.77198 140.90398 147.57597 150.89998 156.89998 160.22397 163.22397 181.37997 188.05197 191.37598 197.37598 200.69997 203.69997 221.83197 228.50397 231.82797 237.82797 241.15196 244.15196 262.28397 268.95596 272.27997 278.27997 281.60397 284.60397 302.73596 309.40796 312.73196 318.73196 322.05597 325.05597 343.18796 349.85995 353.18396 359.18396 362.50797 365.50797"
           y="19.499998"
           sodipodi:role="line"
           id="tspan201">Slot 0Slot 1Slot 0Slot 1Slot 0Slot 1Slot 0Slot 1</tspan><tspan
           x="0 5.9999995 11.999999 17.555998 23.555998 29.555998 35.555996 41.555996"
           y="39.749996"
           sodipodi:role="line"
           id="tspan203">00110101</tspan><tspan
           x="0 5.9999995 11.555999 17.555998 23.555998 29.555998 35.555996 41.555996"
           y="59.249996"
           sodipodi:role="line"
           id="tspan205">01101000</tspan><tspan
           x="0 5.9999995 11.555999 17.555998 23.555998 29.555998 35.555996 41.555996"
           y="78.749992"
           sodipodi:role="line"
           id="tspan207">01101001</tspan><tspan
           x="0 5.9999995 11.999999 17.999998 23.999998 29.999998 35.555996 41.111996"
           y="98.249992"
           sodipodi:role="line"
           id="tspan209">10010111</tspan><tspan
           x="0 5.9999995 11.999999 17.999998 23.999998 29.999998 35.555996 41.555996"
           y="117.74999"
           sodipodi:role="line"
           id="tspan211">10010110</tspan><tspan
           x="0 5.9999995 11.999999 17.555998 23.555998 29.555998 35.555996 41.555996"
           y="137.24998"
           sodipodi:role="line"
           id="tspan213">10110001</tspan><tspan
           x="0 5.9999995 11.999999 17.555998 23.555998 29.555998 35.555996 41.555996"
           y="156.74998"
           sodipodi:role="line"
           id="tspan215">10110101</tspan></text>
<path
         d="m 29.344,43.367 v 0.195 l 0.027,0.196 v 0.246 l 0.024,0.246 0.046,0.316 0.028,0.321 0.023,0.316 0.024,0.344 0.027,0.367 v 4.477 l -0.027,0.367 -0.047,0.734 -0.028,0.391 -0.023,0.39 -0.023,0.395 -0.024,0.391 -0.051,0.39 -0.023,0.367 -0.051,0.368 -0.023,0.343 -0.028,0.317 -0.023,0.316 v 0.297 l -0.024,0.266 -0.023,0.269 -0.027,0.27 -0.024,0.246 -0.051,0.269 -0.046,0.293 -0.028,0.246 -0.047,0.243 -0.023,0.222 -0.027,0.168 0.05,0.172 0.293,0.098 0.2,0.051 h 0.464 l 0.2,0.023 h 0.269 l 0.223,0.023 0.246,0.028 0.246,0.047 0.246,0.05 0.27,0.024 0.246,0.051 0.269,0.023 h 1.11 l 0.269,-0.023 0.27,-0.051 0.273,-0.047 0.27,-0.074 0.269,-0.051 0.246,-0.074 0.246,-0.047 0.223,-0.051 0.492,-0.047 0.293,-0.023 0.32,-0.028 0.297,-0.046 h 0.293 l 0.246,-0.028 0.223,-0.023 0.246,-0.047 0.172,-0.027 0.199,-0.047 0.219,-0.051 0.371,-0.07 0.27,-0.075 0.246,-0.05 0.195,-0.024 0.246,-0.051 0.176,-0.023 h 0.219 l 0.492,-0.047 0.269,-0.098 0.176,-0.171 0.024,-0.172 0.046,-0.219 0.051,-0.172 0.051,-0.148 0.023,-0.172 0.051,-0.172 0.047,-0.145 0.024,-0.195 0.05,-0.223 0.024,-0.218 0.027,-0.293 0.047,-0.27 0.027,-0.293 0.024,-0.32 0.047,-0.367 0.027,-0.368 0.047,-0.39 0.051,-0.414 0.023,-0.442 0.027,-0.464 0.024,-0.489 0.023,-0.492 V 45.422 L 41.672,45.156 V 44.91 L 41.648,44.617 V 43.562 L 41.598,43.27 41.5,43.125 41.328,43 41.082,42.902 40.934,42.828 40.711,42.781 40.516,42.707 40.27,42.633 40.023,42.586 39.531,42.438 39.262,42.391 38.988,42.316 38.719,42.293 38.449,42.242 38.152,42.219 h -0.293 l -0.297,-0.024 -0.296,-0.027 h -0.293 l -0.321,-0.023 h -0.297 l -0.32,-0.024 h -0.316 l -0.321,-0.023 h -0.32 l -0.297,0.023 -0.32,0.024 -0.32,0.097 -0.27,0.074 -0.539,0.196 -0.199,0.05 -0.219,0.047 -0.176,0.051 -0.39,0.047 h -1.575 l -0.222,0.023 -0.199,0.028 -0.247,0.07 -0.246,0.125 -0.144,0.121 -0.172,0.246 -0.074,0.145"
         style="fill:none;stroke:#00c0ff;stroke-width:1.40999997;stroke-linecap:round;stroke-linejoin:round;stroke-miterlimit:10;stroke-dasharray:none;stroke-opacity:1"
         id="path219"
         inkscape:connector-curvature="0" /><path
         d="m 30.207,62.941 0.047,0.172 0.027,0.172 v 0.219 l 0.024,0.297 v 2.422 l -0.024,0.39 -0.051,0.414 -0.05,0.442 -0.024,0.441 -0.051,0.442 -0.023,0.464 -0.047,0.465 -0.051,0.438 -0.05,0.465 -0.047,0.418 -0.051,0.441 -0.047,0.414 -0.074,0.391 -0.051,0.418 -0.047,0.39 -0.051,0.391 -0.05,0.344 -0.047,0.343 -0.028,0.34 -0.046,0.321 -0.024,0.293 -0.101,0.539 -0.047,0.242 -0.051,0.222 -0.024,0.172 -0.05,0.219 -0.024,0.219 -0.051,0.222 -0.074,0.293 -0.047,0.219 -0.05,0.246 -0.075,0.246 -0.047,0.243 -0.05,0.171 v 0.196 l 0.125,0.172 0.293,0.046 h 0.394 l 0.27,0.028 h 0.273 l 0.317,0.023 0.273,0.051 0.293,0.047 0.297,0.051 0.293,0.07 0.32,0.051 0.32,0.074 0.321,0.047 0.32,0.074 0.32,0.051 0.321,0.07 0.32,0.074 0.32,0.051 0.317,0.071 0.593,0.101 0.293,0.047 0.297,0.023 0.293,0.028 0.274,0.023 h 0.761 l 0.293,-0.023 0.297,-0.075 0.344,-0.074 0.297,-0.074 0.269,-0.098 0.27,-0.046 0.246,-0.075 0.492,-0.195 0.125,-0.098 0.149,-0.074 0.195,-0.074 0.195,-0.098 0.274,-0.074 0.39,-0.195 0.2,-0.196 0.121,-0.148 0.101,-0.168 0.071,-0.172 0.074,-0.195 0.051,-0.32 0.023,-0.243 0.027,-0.269 0.024,-0.321 0.047,-0.339 0.027,-0.395 0.074,-0.414 0.047,-0.441 0.051,-0.465 0.148,-0.93 0.047,-0.488 0.051,-0.492 0.047,-0.512 0.051,-0.516 0.023,-0.535 0.027,-0.562 0.024,-0.567 0.023,-0.586 0.024,-0.539 V 66.051 L 42.09,65.363 42.039,65.07 42.016,64.777 41.992,64.508 41.941,64.238 41.918,64.066 41.891,63.871 41.82,63.578 41.77,63.406 41.598,63.285 41.375,63.234 41.156,63.211 H 40.934 L 40.488,63.164 40.219,63.137 39.926,63.09 39.508,63.039 39.137,62.992 38.695,62.941 38.25,62.918 37.734,62.895 h -0.543 l -0.562,0.023 h -0.617 l -0.614,0.051 -0.617,0.07 -0.613,0.074 -0.59,0.075 -0.543,0.074 -0.515,0.074 -0.446,0.07 -0.367,0.051 -0.297,0.047 -0.219,0.027 -0.222,0.024 -0.223,0.047 -0.121,-0.145"
         style="fill:none;stroke:#00c0ff;stroke-width:1.40999997;stroke-linecap:round;stroke-linejoin:round;stroke-miterlimit:10;stroke-dasharray:none;stroke-opacity:1"
         id="path221"
         inkscape:connector-curvature="0" /><path
         d="m 31.633,80.754 -0.172,0.148 -0.074,0.172 -0.075,0.442 -0.097,0.265 -0.074,0.297 -0.098,0.414 -0.051,0.418 -0.074,0.414 -0.074,0.465 -0.071,0.465 -0.05,0.516 -0.075,0.511 -0.05,0.539 -0.047,0.563 -0.074,0.586 -0.051,0.613 -0.024,0.613 -0.05,0.61 -0.024,0.586 -0.023,0.613 -0.024,0.586 -0.027,0.562 v 0.539 l -0.024,0.493 v 0.488 l -0.023,0.465 v 0.441 l -0.027,0.465 v 0.414 l -0.024,0.391 -0.023,0.394 -0.028,0.34 -0.023,0.293 v 0.223 l -0.023,0.218 -0.051,0.293 -0.024,0.196 -0.05,0.172 v 0.222 l 0.171,0.121 0.297,0.047 0.149,0.074 0.222,0.098 0.219,0.074 0.274,0.121 0.242,0.098 0.246,0.125 0.297,0.121 0.269,0.098 0.594,0.195 0.316,0.125 0.297,0.098 0.321,0.07 0.687,0.148 0.32,0.051 0.344,0.047 0.344,0.051 0.32,0.023 0.297,0.024 h 1.305 l 0.293,-0.074 0.347,-0.098 0.368,-0.121 0.367,-0.149 0.371,-0.097 0.246,-0.098 0.223,-0.047 0.195,-0.074 0.297,-0.148 0.121,-0.098 0.148,-0.098 0.223,-0.121 0.145,-0.074 0.199,-0.074 0.246,-0.071 0.172,-0.027 0.172,-0.047 0.246,-0.148 0.172,-0.121 0.121,-0.196 0.074,-0.148 0.051,-0.145 0.05,-0.222 0.071,-0.242 0.101,-0.688 0.047,-0.391 0.028,-0.414 0.023,-0.468 0.023,-0.489 V 91.152 L 42.582,90.617 V 90.078 L 42.559,89.539 V 86.09 l -0.028,-0.367 v -0.344 l -0.023,-0.317 v -0.613 l -0.024,-0.293 -0.027,-0.269 -0.023,-0.27 -0.051,-0.195 -0.047,-0.195 -0.051,-0.149 -0.121,-0.121 -0.199,-0.023 -0.246,-0.024 -0.27,-0.051 -0.195,-0.023 -0.199,-0.024 -0.27,-0.05 -0.246,-0.024 -0.297,-0.027 -0.344,-0.023 -0.367,-0.024 -0.418,-0.051 h -0.468 l -0.54,-0.023 h -1.16 l -0.613,0.023 h -0.641 l -0.613,0.028 -0.566,0.047 -0.516,0.023 h -1.453"
         style="fill:none;stroke:#00c0ff;stroke-width:1.40999997;stroke-linecap:round;stroke-linejoin:round;stroke-miterlimit:10;stroke-dasharray:none;stroke-opacity:1"
         id="path223"
         inkscape:connector-curvature="0" /><path
         d="m 29.934,101.406 v 0.539 l -0.047,0.145 -0.051,0.222 -0.047,0.293 -0.074,0.293 -0.074,0.368 -0.075,0.316 -0.148,0.734 -0.074,0.395 -0.074,0.414 -0.047,0.418 -0.075,0.391 -0.023,0.414 -0.051,0.39 -0.023,0.367 -0.028,0.368 -0.023,0.32 -0.023,0.316 -0.028,0.293 v 0.321 l -0.023,0.269 -0.024,0.293 -0.023,0.246 -0.051,0.242 -0.023,0.247 -0.028,0.218 -0.023,0.246 -0.024,0.219 -0.027,0.246 -0.047,0.539 v 0.27 l -0.023,0.265 v 0.539 l 0.023,0.247 0.024,0.195 0.074,0.172 0.148,0.195 0.172,0.195 0.27,0.219 0.199,0.199 0.219,0.121 0.246,0.145 0.222,0.148 0.172,0.098 0.125,0.098 0.145,0.074 0.148,0.098 0.246,0.097 0.223,0.051 0.195,0.07 0.246,0.075 0.223,0.05 0.246,0.047 0.246,0.028 0.739,0.07 0.246,0.027 0.246,0.024 0.269,0.047 0.27,0.027 0.273,0.047 0.27,0.023 0.269,0.028 0.246,0.046 0.2,0.024 0.218,0.051 0.172,0.023 0.199,0.027 h 0.465 l 0.2,-0.027 0.171,-0.047 0.172,-0.074 0.172,-0.098 0.196,-0.097 0.296,-0.196 0.246,-0.125 0.172,-0.07 0.196,-0.051 0.222,0.024 0.172,0.051 0.246,0.023 h 0.223 l 0.269,-0.023 h 0.223 l 0.195,-0.024 0.223,0.024 0.32,0.023 h 0.715 l 0.172,-0.023 0.246,-0.051 0.172,-0.098 0.195,-0.242 0.125,-0.195 0.071,-0.149 0.051,-0.148 0.05,-0.196 0.024,-0.218 0.074,-0.293 0.047,-0.321 0.051,-0.367 0.023,-0.414 0.051,-0.465 0.023,-0.515 0.028,-0.539 0.023,-0.563 v -7.144 l -0.125,-0.168 -0.172,-0.051 -0.172,0.023 h -0.195 l -0.297,0.028 -0.344,0.023 -0.246,0.023 h -1.648 l -0.367,-0.023 -0.395,-0.051 -0.394,-0.047 -0.418,-0.05 -0.395,-0.047 -0.441,-0.075 -0.418,-0.074 -0.446,-0.074 -0.464,-0.07 -0.446,-0.075 -0.418,-0.074 -0.441,-0.05 -0.418,-0.047 -0.418,-0.051 -0.395,-0.024 h -1.007 l -0.297,0.024 -0.196,0.027 -0.222,0.047 -0.297,0.074 -0.172,0.024 -0.195,0.023 -0.223,-0.047"
         style="fill:none;stroke:#00c0ff;stroke-width:1.40999997;stroke-linecap:round;stroke-linejoin:round;stroke-miterlimit:10;stroke-dasharray:none;stroke-opacity:1"
         id="path225"
         inkscape:connector-curvature="0" /><path
         d="m 30.18,122.156 v -0.222 l -0.047,-0.219 -0.125,-0.195 -0.121,-0.149 v 0.223 l -0.051,0.242 -0.047,0.32 -0.051,0.27 -0.05,0.293 -0.071,0.367 -0.074,0.367 -0.051,0.391 -0.074,0.441 -0.148,0.977 -0.075,0.515 -0.07,0.512 -0.074,0.516 -0.074,0.539 -0.051,0.511 -0.047,0.489 -0.074,0.492 -0.051,0.465 -0.051,0.437 -0.047,0.418 -0.051,0.442 -0.046,0.39 -0.051,0.391 -0.051,0.418 -0.07,0.367 -0.051,0.367 -0.051,0.34 -0.047,0.32 -0.027,0.317 -0.047,0.293 -0.023,0.293 0.047,0.222 0.05,0.172 0.121,0.098 0.274,0.07 0.195,0.051 0.195,0.023 0.274,0.028 h 0.269 l 0.27,0.023 h 0.297 l 0.64,0.047 h 0.344 l 0.344,0.027 h 0.687 l 0.344,0.024 0.348,0.023 0.344,0.051 1.031,0.07 0.347,0.028 0.688,0.047 h 3.617 l 0.27,-0.047 0.269,-0.051 0.246,-0.047 0.223,-0.074 0.32,-0.074 0.196,-0.075 0.199,-0.074 0.246,-0.047 0.195,-0.05 0.246,-0.047 0.223,-0.098 0.172,-0.121 v -0.516 l 0.023,-0.218 v -0.539 l 0.024,-0.344 v -3.133 l -0.024,-0.535 -0.047,-0.539 -0.05,-0.539 -0.024,-0.516 -0.051,-0.512 -0.05,-0.464 -0.024,-0.442 -0.074,-0.414 -0.023,-0.394 -0.051,-0.368 -0.024,-0.34 -0.023,-0.32 -0.027,-0.316 -0.071,-0.809 -0.074,-0.242 -0.051,-0.199 -0.074,-0.145 -0.148,-0.097 -0.27,-0.024 H 36.43 l -0.418,-0.027 -0.395,-0.047 -0.39,-0.027 -0.789,-0.047 h -0.762 l -0.371,0.023 -0.367,0.051 -0.395,0.047 -0.367,0.074 -0.395,0.074 -0.371,0.074 -0.32,0.047 -0.293,0.051 -0.297,0.024 -0.219,0.023 -0.199,-0.047 -0.172,-0.098 0.195,0.168"
         style="fill:none;stroke:#00c0ff;stroke-width:1.40999997;stroke-linecap:round;stroke-linejoin:round;stroke-miterlimit:10;stroke-dasharray:none;stroke-opacity:1"
         id="path227"
         inkscape:connector-curvature="0" /><path
         d="m 29.492,139.453 v 0.195 l -0.097,0.223 -0.149,0.317 -0.074,0.195 -0.098,0.269 -0.051,0.293 -0.097,0.367 -0.024,0.344 -0.023,0.414 -0.051,0.418 -0.023,0.391 -0.051,0.465 -0.024,0.418 v 0.437 l -0.027,0.465 -0.023,0.465 v 0.441 l -0.024,0.442 v 2.226 l -0.023,0.414 v 0.395 l -0.028,0.391 v 3.988 l 0.028,0.219 0.023,0.246 0.024,0.242 0.05,0.199 0.075,0.168 0.121,0.125 0.148,0.098 0.344,0.195 0.223,0.047 0.195,0.051 0.246,0.046 0.246,0.028 0.246,0.047 0.297,0.027 0.293,0.047 0.297,0.023 h 1.402 l 0.395,-0.023 0.39,-0.047 0.422,-0.051 0.418,-0.023 0.418,-0.028 0.418,-0.023 h 1.821 l 0.293,-0.023 0.273,-0.051 0.195,-0.024 0.223,-0.046 0.172,-0.028 0.195,-0.07 0.274,-0.098 0.246,-0.074 0.246,-0.098 0.218,-0.05 0.223,-0.047 0.344,-0.149 0.195,-0.097 0.246,-0.075 0.321,-0.121 0.199,-0.05 0.195,-0.071 0.172,-0.051 0.148,-0.097 0.098,-0.172 0.074,-0.172 0.075,-0.293 v -2.57 L 41.719,150 l -0.024,-0.516 -0.074,-0.535 -0.047,-0.566 -0.051,-0.563 -0.148,-1.125 -0.098,-0.562 -0.097,-0.539 -0.075,-0.512 -0.097,-0.488 -0.051,-0.492 -0.195,-0.782 -0.074,-0.39 -0.098,-0.321 -0.051,-0.293 -0.074,-0.269 -0.074,-0.242 -0.075,-0.246 -0.046,-0.196 -0.028,-0.222 -0.047,-0.219 -0.148,-0.344 -0.098,-0.121 -0.148,-0.051 -0.172,-0.047 -0.172,0.024 h -0.269 l -0.274,0.023 -0.344,0.051 h -0.367 l -0.394,0.023 -0.469,0.051 h -0.465 l -0.52,0.024 h -0.539 l -0.543,0.023 h -3.148 l -0.641,-0.047 -0.269,-0.074 -0.223,-0.023 -0.148,-0.051 -0.145,-0.098 -0.148,-0.097"
         style="fill:none;stroke:#00c0ff;stroke-width:1.40999997;stroke-linecap:round;stroke-linejoin:round;stroke-miterlimit:10;stroke-dasharray:none;stroke-opacity:1"
         id="path229"
         inkscape:connector-curvature="0" /></g><g
       id="g231"><g
         id="g233"
         clip-path="url(#clipPath237)"><path
           d="m 28.977,160.18 v 0.511 l -0.051,0.368 -0.047,0.293 -0.027,0.293 -0.075,0.394 -0.023,0.367 -0.024,0.391 -0.05,0.441 v 0.438 l -0.024,0.441 v 2.445 l 0.024,0.516 v 1.004 l 0.023,0.465 0.027,0.465 0.024,0.414 0.023,0.394 0.028,0.391 0.023,0.34 0.024,0.32 0.027,0.317 v 3.648 l 0.023,0.269 v 0.293 l 0.024,0.27 0.074,0.242 0.074,0.149 0.074,0.144 0.149,0.051 h 1.23 l 0.293,0.023 h 0.321 l 0.343,0.051 0.371,0.024 0.391,0.05 0.395,0.071 0.371,0.05 0.418,0.024 0.418,0.051 h 1.672 l 0.394,-0.028 0.367,-0.047 0.348,-0.074 0.316,-0.047 0.274,-0.074 0.269,-0.051 0.246,-0.074 0.246,-0.07 0.223,-0.051 0.172,-0.074 0.195,-0.098 0.27,-0.121 0.199,-0.121 0.293,-0.098 0.176,-0.101 0.144,-0.047 0.149,-0.051 0.148,-0.07 0.149,-0.074 0.144,-0.051 0.246,-0.145 0.246,-0.148 0.176,-0.074 0.172,-0.047 0.219,-0.074 0.125,-0.27 v -0.195 l 0.023,-0.27 v -1.808 l -0.023,-0.516 -0.024,-0.563 -0.027,-0.586 -0.047,-0.636 -0.051,-0.66 -0.05,-0.688 -0.047,-0.707 -0.024,-0.734 -0.051,-0.688 -0.023,-0.707 -0.051,-0.637 -0.051,-0.613 -0.046,-0.562 -0.024,-0.489 -0.027,-0.441 -0.024,-0.414 -0.023,-0.344 -0.027,-0.316 -0.024,-0.223 -0.051,-0.219 -0.07,-0.269 -0.074,-0.149 -0.172,-0.121 h -0.445 l -0.293,-0.051 -0.172,-0.046 -0.223,-0.024 -0.269,-0.074 -0.246,-0.051 -0.348,-0.023 -0.317,-0.047 -0.347,-0.027 h -0.367 l -0.395,-0.024 h -2.73 l -0.442,-0.023 -0.422,-0.051 -0.39,-0.047 -0.371,-0.027 -0.688,-0.047 h -1.379 l -0.246,-0.024 -0.223,-0.027 -0.171,-0.047 -0.145,0.098"
           style="fill:none;stroke:#00c0ff;stroke-width:1.40999997;stroke-linecap:round;stroke-linejoin:round;stroke-miterlimit:10;stroke-dasharray:none;stroke-opacity:1"
           id="path239"
           inkscape:connector-curvature="0" /></g></g><g
       id="g241"><path
         d="M 35.496,30.719 V 30.5 l 0.047,-0.199 0.074,0.222 0.028,0.27 v 1.613 l -0.028,0.418 v 0.414 l -0.023,0.465 v 6.434 l 0.023,0.297 v 0.195 l 0.028,0.219 v 0.785 l -0.274,-0.074 -0.144,-0.172 -0.2,-0.219 -0.218,-0.297 -0.223,-0.242 -0.27,-0.27 -0.222,-0.246 -0.172,-0.195 -0.199,-0.195 0.074,0.316 0.223,0.246 0.246,0.27 0.269,0.246 0.32,0.219 0.321,0.171 0.32,0.121 0.32,0.075 0.344,0.047 h 0.344 l 0.32,-0.098 0.321,-0.145 0.293,-0.195 0.296,-0.246 0.27,-0.219 0.246,-0.269 0.246,-0.293 0.199,-0.27 0.145,-0.32 0.125,-0.293 0.023,-0.344"
         style="fill:none;stroke:#00c0ff;stroke-width:1.40999997;stroke-linecap:round;stroke-linejoin:round;stroke-miterlimit:10;stroke-dasharray:none;stroke-opacity:1"
         id="path243"
         inkscape:connector-curvature="0" /><path
         d="m 27.055,23.719 -0.145,0.074 -0.051,0.148 0.024,0.391 0.027,0.246 0.024,0.293 0.023,0.367 0.027,0.34 0.047,0.344 0.051,0.269 0.047,0.321 0.051,0.218 0.05,0.293"
         style="fill:none;stroke:#00c0ff;stroke-width:1.40999997;stroke-linecap:round;stroke-linejoin:round;stroke-miterlimit:10;stroke-dasharray:none;stroke-opacity:1"
         id="path245"
         inkscape:connector-curvature="0" /><path
         d="m 26.859,19.535 v -0.219 l 0.172,0.075 0.125,0.144 0.098,0.125"
         style="fill:none;stroke:#00c0ff;stroke-width:1.40999997;stroke-linecap:round;stroke-linejoin:round;stroke-miterlimit:10;stroke-dasharray:none;stroke-opacity:1"
         id="path247"
         inkscape:connector-curvature="0" /><path
         d="m 30.035,23.988 0.047,0.246 0.051,0.293 0.047,0.368 0.101,0.417 0.071,0.415 0.074,0.39 0.074,0.395 0.027,0.316 0.047,0.246 0.051,0.219 0.047,0.195 0.199,-0.172 0.121,-0.218 0.172,-0.321 0.125,-0.316 0.149,-0.316 0.171,-0.321 0.145,-0.293 0.176,-0.293 0.195,-0.269 0.195,-0.196 0.246,-0.05 0.172,0.05 0.149,0.172 0.097,0.243 0.051,0.222 0.051,0.195 0.047,0.243 0.051,0.195 0.023,0.223 0.023,0.218 0.075,0.196"
         style="fill:none;stroke:#00c0ff;stroke-width:1.40999997;stroke-linecap:round;stroke-linejoin:round;stroke-miterlimit:10;stroke-dasharray:none;stroke-opacity:1"
         id="path249"
         inkscape:connector-curvature="0" /><path
         d="m 35.617,23.793 0.051,-0.172 0.051,-0.242 0.047,-0.149 -0.121,0.321 -0.102,0.242 -0.172,0.246 -0.172,0.344 -0.121,0.293 -0.098,0.316 -0.074,0.32 -0.051,0.293 -0.023,0.27 -0.023,0.219 0.07,0.246 0.199,0.098 0.293,-0.051 0.149,-0.098 0.148,-0.195 0.172,-0.27 0.098,-0.293 0.148,-0.367 0.074,-0.391 0.098,-0.418 0.051,-0.437 0.046,-0.465 0.051,-0.465 V 22.031 L 36.383,21.59 36.281,21.176 36.184,20.785 36.035,20.441 35.914,20.125 35.766,19.828 35.645,19.633 35.496,19.438 35.371,19.293 35.199,19.098 35.051,19 l -0.071,0.168 0.024,0.223 0.023,0.339 0.051,0.395 0.098,0.391 0.121,0.488 0.125,0.539 0.148,0.586 0.121,0.59 0.149,0.633 0.148,0.589 0.098,0.563 0.148,0.562 0.098,0.442 0.125,0.39 0.121,0.317 0.074,0.195 0.075,0.199"
         style="fill:none;stroke:#00c0ff;stroke-width:1.40999997;stroke-linecap:round;stroke-linejoin:round;stroke-miterlimit:10;stroke-dasharray:none;stroke-opacity:1"
         id="path251"
         inkscape:connector-curvature="0" /><path
         d="m 38.055,25.48 0.148,-0.097 0.27,-0.098 h 0.859 l 0.176,-0.047 0.172,-0.074 0.172,-0.098 0.121,-0.121 0.148,-0.097 0.121,-0.27 -0.097,-0.418 -0.196,-0.242 -0.246,-0.27 -0.297,-0.171 -0.32,-0.075 -0.27,0.075 -0.195,0.144 -0.172,0.195 -0.101,0.27 v 0.562 l 0.027,0.297 0.047,0.317 0.101,0.293 0.122,0.32 0.125,0.219 0.121,0.218 0.097,0.149 0.125,0.148 0.149,0.121 0.195,0.047"
         style="fill:none;stroke:#00c0ff;stroke-width:1.40999997;stroke-linecap:round;stroke-linejoin:round;stroke-miterlimit:10;stroke-dasharray:none;stroke-opacity:1"
         id="path253"
         inkscape:connector-curvature="0" /><path
         d="m 42.434,23.574 0.269,0.098 0.149,0.074 0.199,0.172 0.195,0.144 0.246,0.172 0.293,0.196 0.297,0.195 0.395,0.223 0.32,0.168 0.32,0.172 0.219,0.097 0.297,0.172 0.195,0.098 0.344,0.148 h 0.176"
         style="fill:none;stroke:#00c0ff;stroke-width:1.40999997;stroke-linecap:round;stroke-linejoin:round;stroke-miterlimit:10;stroke-dasharray:none;stroke-opacity:1"
         id="path255"
         inkscape:connector-curvature="0" /><path
         d="m 46.543,21.91 -0.246,0.195 -0.246,0.219 -0.344,0.246 -0.297,0.344 -0.32,0.367 -0.344,0.438 -0.367,0.492 -0.371,0.465 -0.344,0.488 -0.32,0.391 -0.223,0.293 -0.195,0.269 -0.121,0.125 -0.246,0.098"
         style="fill:none;stroke:#00c0ff;stroke-width:1.40999997;stroke-linecap:round;stroke-linejoin:round;stroke-miterlimit:10;stroke-dasharray:none;stroke-opacity:1"
         id="path257"
         inkscape:connector-curvature="0" /><path
         d="M 7.203,55.922 6.98,55.945 h 0.223 l 0.246,-0.023 h 0.27 l 0.343,-0.027 h 1.551 l 0.442,0.027 h 0.468 l 0.469,0.023 0.465,0.024 0.445,0.023 0.442,0.028 0.441,0.023 0.418,0.047 0.395,0.027 h 0.371 l 0.367,0.024 H 14.68 L 15,56.164 h 0.887 l 0.269,0.024 h 0.27 l 0.246,0.027 0.246,0.023 0.223,0.024 0.246,0.027 0.172,0.023 0.199,0.047 0.172,0.051 0.195,0.047 0.223,0.027 0.195,0.047 0.199,0.024 0.219,0.05 0.246,0.024 0.223,0.027 0.269,0.024 0.172,0.023 0.223,0.024 0.269,0.027 0.297,0.023 h 0.367 l 0.371,0.024 h 0.465 l 0.246,0.023 h 0.223 l 0.223,0.028 0.246,0.023 0.293,0.047 0.297,0.074 0.297,0.051 0.218,0.023 h 1.574 l 0.247,-0.023 H 26 l 0.27,-0.027 h 0.418 l -0.149,0.074 -0.148,0.051"
         style="fill:none;stroke:#ff8000;stroke-width:1.40999997;stroke-linecap:round;stroke-linejoin:round;stroke-miterlimit:10;stroke-dasharray:none;stroke-opacity:1"
         id="path259"
         inkscape:connector-curvature="0" /><path
         d="M 5.676,77.355 H 6.02 l 0.269,-0.074 0.32,-0.051 0.418,-0.07 0.422,-0.098 0.489,-0.074 0.492,-0.097 0.519,-0.098 0.567,-0.148 0.589,-0.075 0.614,-0.097 0.617,-0.145 0.613,-0.074 0.617,-0.098 0.614,-0.074 0.566,-0.051 0.543,-0.023 h 0.488 l 0.493,-0.024 h 0.445 l 0.418,-0.023 H 16.5 l 0.371,-0.027 h 3.246 l 0.297,-0.024 h 0.27 l 0.269,-0.023 h 2.856 l 0.269,0.023 h 0.395 l 0.246,0.024 h 0.246 l 0.32,0.027 0.223,0.023 0.219,0.024 0.246,0.023 0.222,0.028 0.27,0.023 0.199,0.023 0.195,0.051 0.172,0.047"
         style="fill:none;stroke:#ff8000;stroke-width:1.40999997;stroke-linecap:round;stroke-linejoin:round;stroke-miterlimit:10;stroke-dasharray:none;stroke-opacity:1"
         id="path261"
         inkscape:connector-curvature="0" /><path
         d="m 6.684,96.66 0.246,0.121 0.199,0.098 0.391,0.195 0.32,0.074 0.344,0.075 0.468,0.074 0.493,0.023 0.543,0.047 0.566,0.028 0.59,0.023 0.613,0.023 0.617,0.028 h 1.746 l 1.032,-0.102 0.984,-0.195 0.445,-0.07 0.391,-0.075 0.394,-0.05 0.344,-0.024 0.32,-0.051 0.297,-0.023 h 0.27 l 0.269,-0.024 h 0.52 l 0.269,-0.023 0.27,-0.027 0.273,-0.024 0.293,-0.047 0.27,-0.05 0.273,-0.047 0.246,-0.051 0.27,-0.051 0.32,-0.023 0.321,-0.047 0.367,-0.027 h 0.371 l 0.367,-0.024 h 1.848 l 0.218,-0.023 h 0.247 l 0.222,-0.024 h 0.367 l 0.348,-0.027 0.27,-0.024 h 0.441 l 0.223,0.024 0.269,0.051 0.274,0.047 0.195,0.027"
         style="fill:none;stroke:#ff8000;stroke-width:1.40999997;stroke-linecap:round;stroke-linejoin:round;stroke-miterlimit:10;stroke-dasharray:none;stroke-opacity:1"
         id="path263"
         inkscape:connector-curvature="0" /><path
         d="m 7.668,115.648 0.125,-0.101 0.145,-0.047 0.148,-0.098 0.223,-0.074 0.269,-0.074 0.297,-0.07 0.367,-0.051 h 0.344 l 0.394,0.023 h 0.418 l 0.493,0.028 0.519,0.046 0.563,0.024 0.617,0.027 h 0.613 l 0.641,-0.027 0.64,-0.047 0.614,-0.074 0.593,-0.051 0.563,-0.07 0.543,-0.028 0.515,-0.023 0.52,-0.023 0.488,0.023 h 0.52 l 0.492,0.023 h 0.492 l 0.465,0.028 h 3.742 l 0.27,0.023 h 0.515 l 0.246,0.024 h 0.247 l 0.273,0.023 h 0.809 l 0.222,0.027 0.196,0.024 0.175,0.051"
         style="fill:none;stroke:#ff8000;stroke-width:1.40999997;stroke-linecap:round;stroke-linejoin:round;stroke-miterlimit:10;stroke-dasharray:none;stroke-opacity:1"
         id="path265"
         inkscape:connector-curvature="0" /><path
         d="m 8.457,134.391 h 0.195 l 0.297,-0.051 0.246,0.023 h 0.246 l 0.391,0.028 h 0.887 l 0.566,0.023 h 1.231 l 0.64,0.047 h 1.328 l 0.664,0.027 0.614,0.024 0.617,0.023 0.59,0.024 h 0.543 l 0.539,0.027 h 3.445 l 0.297,-0.051 0.293,-0.023 0.269,-0.098 0.274,-0.023 0.293,-0.051 0.297,-0.024 0.32,-0.023 0.293,-0.027 h 0.887 l 0.297,0.027 h 0.269 l 0.223,0.023 0.195,0.047 0.27,0.051 0.148,0.047 0.27,0.051 0.246,0.047 h 0.765"
         style="fill:none;stroke:#ff8000;stroke-width:1.40999997;stroke-linecap:round;stroke-linejoin:round;stroke-miterlimit:10;stroke-dasharray:none;stroke-opacity:1"
         id="path267"
         inkscape:connector-curvature="0" /><path
         d="m 7.668,153.84 0.27,0.098 0.347,0.074 0.32,0.023 h 2.016 l 0.664,-0.047 0.715,-0.023 0.738,-0.051 0.739,-0.023 0.711,-0.024 0.714,-0.027 0.641,-0.024 h 2.262 l 0.492,0.024 h 0.445 l 0.442,0.027 0.418,0.047 0.418,0.024 h 1.843 l 0.321,-0.024 0.593,-0.047 0.27,-0.027 0.246,-0.024 0.269,-0.023 0.247,-0.023 0.492,-0.102 0.246,-0.023 0.269,-0.047 0.223,-0.051 0.27,-0.024 0.273,-0.05 0.219,-0.047 0.297,-0.024 0.293,-0.027 0.273,-0.023 0.344,-0.024 0.269,-0.027 0.297,-0.024 0.196,-0.023 0.32,-0.024"
         style="fill:none;stroke:#ff8000;stroke-width:1.40999997;stroke-linecap:round;stroke-linejoin:round;stroke-miterlimit:10;stroke-dasharray:none;stroke-opacity:1"
         id="path269"
         inkscape:connector-curvature="0" /><path
         d="m 8.137,172.805 0.246,0.097 0.195,0.024 h 3.469 l 0.543,0.023 h 0.539 l 0.519,0.028 0.516,0.023 0.492,0.047 0.469,0.027 0.465,0.047 0.445,0.024 0.442,0.027 0.418,0.023 h 0.417 l 0.79,0.047 0.394,0.028 0.391,0.023 0.371,0.051 0.394,0.047 0.391,0.023 0.395,0.051 0.371,0.047 0.367,0.027 0.371,0.047 0.344,0.023 0.32,0.051 0.344,0.024 0.32,0.05 0.32,0.024 0.344,0.023 0.32,0.028 0.321,0.023 h 3.121 l 0.246,-0.023 0.246,-0.028 0.223,-0.023 0.246,-0.024 0.222,-0.023 0.219,-0.051 0.199,-0.023"
         style="fill:none;stroke:#ff8000;stroke-width:1.40999997;stroke-linecap:round;stroke-linejoin:round;stroke-miterlimit:10;stroke-dasharray:none;stroke-opacity:1"
         id="path271"
         inkscape:connector-curvature="0" /><path
         d="M 8.629,21.52 V 20.957 L 8.578,20.59 8.555,20.367 8.531,20.59 8.504,20.957 v 0.512 L 8.48,22.082 v 1.516 L 8.457,24.48 8.406,25.41 8.359,26.34 8.309,27.242 8.258,28.125 8.16,28.883 8.086,29.617 8.039,30.254 7.988,30.766 v 0.539"
         style="fill:none;stroke:#ff8000;stroke-width:1.40999997;stroke-linecap:round;stroke-linejoin:round;stroke-miterlimit:10;stroke-dasharray:none;stroke-opacity:1"
         id="path273"
         inkscape:connector-curvature="0" /><path
         d="M 6.266,26.852 6.117,26.707 5.945,26.582 5.75,26.438 5.945,26.266 6.219,26.191 6.562,26.145 7.055,26.094 H 7.57 l 0.59,0.023 0.617,0.028 0.688,0.097 0.687,0.145 0.664,0.172 0.664,0.218 0.543,0.172 0.516,0.196"
         style="fill:none;stroke:#ff8000;stroke-width:1.40999997;stroke-linecap:round;stroke-linejoin:round;stroke-miterlimit:10;stroke-dasharray:none;stroke-opacity:1"
         id="path275"
         inkscape:connector-curvature="0" /><path
         d="m 15.246,27.047 -0.098,-0.121 -0.343,-0.149 -0.172,-0.023 -0.321,0.023 -0.269,0.051 -0.297,0.098 -0.344,0.172 -0.297,0.242 -0.32,0.246 -0.246,0.32 -0.219,0.317 -0.125,0.343 -0.097,0.34 -0.024,0.297 v 0.293 l 0.121,0.219 0.149,0.148 0.246,0.121 0.293,0.047 0.32,0.028 H 13.5 l 0.32,-0.075 0.293,-0.148 0.199,-0.121 0.196,-0.219 0.148,-0.223 0.074,-0.218 0.098,-0.293 0.051,-0.223 0.023,-0.266 v -0.199 l 0.223,0.223 0.121,0.269 0.074,0.293 0.075,0.27 0.121,0.293 0.101,0.293 0.074,0.195 0.121,0.223 0.223,0.195"
         style="fill:none;stroke:#ff8000;stroke-width:1.40999997;stroke-linecap:round;stroke-linejoin:round;stroke-miterlimit:10;stroke-dasharray:none;stroke-opacity:1"
         id="path277"
         inkscape:connector-curvature="0" /><path
         d="m 18.25,27.539 0.023,-0.199 -0.125,-0.168 -0.218,-0.125 -0.172,0.098 -0.172,0.269 -0.102,0.223 -0.046,0.218 -0.051,0.293 -0.024,0.27 v 0.293 l 0.075,0.269 0.121,0.247 0.171,0.195 0.223,0.144 0.172,0.102 0.246,0.047 0.195,0.051 0.246,-0.051 0.247,-0.047 0.199,-0.148 0.222,-0.219 0.122,-0.246 0.148,-0.317 0.047,-0.297 0.051,-0.269 0.05,-0.293 0.024,-0.195 0.023,-0.243 V 27 l 0.098,0.27 0.074,0.339 0.125,0.368 0.149,0.464 0.171,0.516 0.172,0.586 0.172,0.59 0.172,0.609 0.121,0.613 0.074,0.563 0.051,0.539 -0.051,0.488 -0.046,0.465 -0.149,0.414 -0.223,0.344 -0.218,0.293 -0.297,0.223 -0.297,0.168 -0.367,0.125 -0.418,0.046 -0.469,0.028"
         style="fill:none;stroke:#ff8000;stroke-width:1.40999997;stroke-linecap:round;stroke-linejoin:round;stroke-miterlimit:10;stroke-dasharray:none;stroke-opacity:1"
         id="path279"
         inkscape:connector-curvature="0" /><path
         d="m 152.289,45.914 -0.148,-0.223 -0.321,0.028 h -0.246 l -0.219,0.121 -0.32,0.172 -0.246,0.242 -0.32,0.367 -0.27,0.367 -0.246,0.465 -0.172,0.539 -0.125,0.586 -0.074,0.637 -0.047,0.66 0.098,0.664 0.172,0.633 0.246,0.59 0.394,0.465 0.418,0.339 0.492,0.223 0.54,0.074 0.543,-0.074 0.515,-0.223 0.469,-0.367 0.418,-0.511 0.344,-0.586 0.246,-0.661 0.172,-0.687 0.097,-0.711 -0.023,-0.684 -0.098,-0.66 -0.172,-0.613 -0.222,-0.535 -0.27,-0.465 -0.269,-0.367 -0.274,-0.246 -0.195,-0.149 -0.223,-0.07 -0.246,0.047 -0.148,0.195 0.027,0.32"
         style="fill:none;stroke:#ff8000;stroke-width:1.40999997;stroke-linecap:round;stroke-linejoin:round;stroke-miterlimit:10;stroke-dasharray:none;stroke-opacity:1"
         id="path281"
         inkscape:connector-curvature="0" /><path
         d="m 158.809,46.672 -0.172,0.023 -0.149,0.098 -0.172,0.172 -0.171,0.246 -0.196,0.367 -0.172,0.438 -0.172,0.464 -0.101,0.54 -0.098,0.539 -0.023,0.539 v 0.511 l 0.097,0.442 0.172,0.39 0.27,0.247 0.348,0.148 0.367,0.047 0.371,-0.098 0.367,-0.195 0.371,-0.293 0.293,-0.418 0.246,-0.438 0.172,-0.492 0.098,-0.539 0.05,-0.512 -0.05,-0.539 -0.121,-0.464 -0.172,-0.442 -0.223,-0.367 -0.223,-0.27 -0.246,-0.168 -0.242,-0.125 -0.176,-0.046 -0.172,-0.024 -0.171,0.145 -0.075,0.148 0.075,0.27 0.05,0.144"
         style="fill:none;stroke:#ff8000;stroke-width:1.40999997;stroke-linecap:round;stroke-linejoin:round;stroke-miterlimit:10;stroke-dasharray:none;stroke-opacity:1"
         id="path283"
         inkscape:connector-curvature="0" /><path
         d="m 164.863,45.863 0.121,0.223 0.075,0.266 0.05,0.343 0.024,0.418 v 1 l 0.023,0.539 0.028,0.493 0.046,0.511 0.051,0.465 0.074,0.367 0.075,0.293 0.121,0.172"
         style="fill:none;stroke:#ff8000;stroke-width:1.40999997;stroke-linecap:round;stroke-linejoin:round;stroke-miterlimit:10;stroke-dasharray:none;stroke-opacity:1"
         id="path285"
         inkscape:connector-curvature="0" /><path
         d="m 169.734,44.199 0.172,0.024 0.074,0.172 0.047,0.222 v 0.879 l -0.023,0.539 -0.051,0.613 -0.047,0.633 -0.051,0.664 -0.097,0.633 -0.098,0.637 -0.051,0.562 -0.074,0.493 -0.047,0.437"
         style="fill:none;stroke:#ff8000;stroke-width:1.40999997;stroke-linecap:round;stroke-linejoin:round;stroke-miterlimit:10;stroke-dasharray:none;stroke-opacity:1"
         id="path287"
         inkscape:connector-curvature="0" /><path
         d="m 233.582,61.035 -0.027,-0.172 -0.246,-0.074 h -0.196 l -0.246,-0.023 h -0.492 l -0.27,0.023 -0.32,0.098 -0.32,0.148 -0.371,0.219 -0.367,0.269 -0.395,0.317 -0.394,0.394 -0.391,0.465 -0.348,0.512 -0.316,0.562 -0.297,0.59 -0.195,0.633 -0.149,0.664 -0.097,0.633 -0.028,0.613 v 0.563 l 0.074,0.515 0.149,0.438 0.222,0.32 0.321,0.196 0.344,0.121 0.418,-0.047 0.464,-0.149 0.52,-0.293 0.539,-0.465 0.566,-0.539 0.543,-0.609 0.516,-0.687 0.441,-0.708 0.395,-0.71 0.297,-0.711 0.172,-0.637 0.097,-0.586 v -0.539 l -0.074,-0.488 -0.172,-0.442 -0.246,-0.367 -0.297,-0.316 -0.269,-0.223 -0.321,-0.168 -0.218,-0.125 h -0.297 l -0.196,0.027 -0.199,0.145 -0.218,0.148 -0.075,0.172"
         style="fill:none;stroke:#ff8000;stroke-width:1.40999997;stroke-linecap:round;stroke-linejoin:round;stroke-miterlimit:10;stroke-dasharray:none;stroke-opacity:1"
         id="path289"
         inkscape:connector-curvature="0" /><path
         d="m 238.5,60.301 0.074,-0.196 0.024,0.293 v 0.317 l -0.047,0.344 -0.024,0.515 -0.074,0.535 -0.051,0.637 -0.023,0.66 -0.051,0.688 -0.023,0.636 v 0.633 l -0.024,0.539 v 1.153 l 0.024,0.195"
         style="fill:none;stroke:#ff8000;stroke-width:1.40999997;stroke-linecap:round;stroke-linejoin:round;stroke-miterlimit:10;stroke-dasharray:none;stroke-opacity:1"
         id="path291"
         inkscape:connector-curvature="0" /><path
         d="m 241.23,60.91 0.102,-0.168 0.098,-0.199 v 0.367 l -0.024,0.32 -0.051,0.415 -0.074,0.539 -0.074,0.562 -0.047,0.613 -0.074,0.637 -0.051,0.637 -0.023,0.609 -0.028,0.613 -0.023,0.512 -0.023,0.442 v 0.586 l 0.023,0.195"
         style="fill:none;stroke:#ff8000;stroke-width:1.40999997;stroke-linecap:round;stroke-linejoin:round;stroke-miterlimit:10;stroke-dasharray:none;stroke-opacity:1"
         id="path293"
         inkscape:connector-curvature="0" /><path
         d="m 247.434,62.648 0.023,-0.218 -0.125,-0.149 -0.172,0.024 -0.144,0.097 -0.176,0.172 -0.145,0.196 -0.199,0.296 -0.172,0.27 -0.219,0.293 -0.148,0.367 -0.199,0.414 -0.172,0.465 -0.172,0.563 -0.172,0.589 -0.121,0.633 -0.074,0.637 -0.074,0.613 0.047,0.586 0.125,0.516 0.195,0.437 0.297,0.344 0.343,0.223 0.418,0.144 0.469,0.051 h 0.492 l 0.493,-0.098 0.492,-0.199 0.492,-0.316 0.465,-0.442 0.445,-0.511 0.367,-0.59 0.297,-0.66 0.219,-0.707 0.148,-0.762 0.075,-0.758 -0.024,-0.781 -0.098,-0.711 -0.171,-0.684 -0.274,-0.59 -0.293,-0.511 -0.344,-0.418 -0.347,-0.293 -0.367,-0.172 -0.321,-0.098 -0.367,-0.047 -0.348,0.024 -0.32,0.051 -0.316,0.07 -0.2,0.074"
         style="fill:none;stroke:#ff8000;stroke-width:1.40999997;stroke-linecap:round;stroke-linejoin:round;stroke-miterlimit:10;stroke-dasharray:none;stroke-opacity:1"
         id="path295"
         inkscape:connector-curvature="0" /><path
         d="m 194.508,97.395 v -0.223 l -0.098,0.246 -0.074,0.246 -0.074,0.316 -0.098,0.344 -0.098,0.414 -0.121,0.492 -0.148,0.536 -0.149,0.613 -0.171,0.66 -0.149,0.684 -0.172,0.687 -0.148,0.684 -0.172,0.66 -0.098,0.613 -0.097,0.512 -0.051,0.465 -0.047,0.367 -0.027,0.269 -0.024,0.223 -0.023,0.219"
         style="fill:none;stroke:#ff8000;stroke-width:1.40999997;stroke-linecap:round;stroke-linejoin:round;stroke-miterlimit:10;stroke-dasharray:none;stroke-opacity:1"
         id="path297"
         inkscape:connector-curvature="0" /><path
         d="m 198.422,98.863 -0.195,-0.051 -0.2,0.024 -0.195,0.098 -0.172,0.171 -0.172,0.293 -0.222,0.344 -0.196,0.418 -0.199,0.512 -0.195,0.562 -0.125,0.614 -0.121,0.586 -0.051,0.562 v 0.516 l 0.074,0.465 0.172,0.316 0.246,0.246 0.344,0.121 0.418,0.051 0.445,-0.098 0.492,-0.172 0.516,-0.32 0.492,-0.391 0.442,-0.464 0.418,-0.539 0.32,-0.563 0.222,-0.586 0.172,-0.586 0.051,-0.566 -0.027,-0.535 -0.121,-0.465 -0.172,-0.395 -0.246,-0.316 -0.223,-0.219 -0.223,-0.125 -0.171,-0.047 -0.196,0.047 -0.148,0.051 -0.149,0.121 -0.144,0.195 -0.074,0.367"
         style="fill:none;stroke:#ff8000;stroke-width:1.40999997;stroke-linecap:round;stroke-linejoin:round;stroke-miterlimit:10;stroke-dasharray:none;stroke-opacity:1"
         id="path299"
         inkscape:connector-curvature="0" /><path
         d="m 205.164,98.297 v 0.223 l -0.125,0.195 -0.121,0.344 -0.223,0.39 -0.246,0.465 -0.195,0.539 -0.199,0.539 -0.121,0.563 -0.125,0.535 -0.047,0.515 v 0.442 l 0.074,0.367 0.144,0.242 0.247,0.149 0.296,0.074 0.344,-0.074 0.371,-0.149 0.367,-0.242 0.344,-0.344 0.321,-0.39 0.246,-0.465 0.172,-0.465 0.097,-0.516 0.051,-0.488 -0.051,-0.488 -0.097,-0.442 -0.172,-0.418 -0.223,-0.339 -0.246,-0.247 -0.219,-0.171 -0.246,-0.121 -0.172,-0.051 -0.199,0.051 -0.172,0.218 -0.074,0.149 0.027,0.195"
         style="fill:none;stroke:#ff8000;stroke-width:1.40999997;stroke-linecap:round;stroke-linejoin:round;stroke-miterlimit:10;stroke-dasharray:none;stroke-opacity:1"
         id="path301"
         inkscape:connector-curvature="0" /><path
         d="m 211.609,97.809 v 0.687 l -0.05,0.563 -0.075,0.683 -0.07,0.781 -0.102,0.832 -0.023,0.86 -0.098,0.758 -0.074,0.683 -0.051,0.539 -0.023,0.344 v 0.195"
         style="fill:none;stroke:#ff8000;stroke-width:1.40999997;stroke-linecap:round;stroke-linejoin:round;stroke-miterlimit:10;stroke-dasharray:none;stroke-opacity:1"
         id="path303"
         inkscape:connector-curvature="0" /><path
         d="m 157.875,63.285 0.074,-0.219 0.074,-0.148 0.024,-0.246 v -0.168 l 0.023,0.195 0.028,0.219 0.023,0.293 0.024,0.367 0.023,0.418 0.027,0.465 v 0.512 l 0.024,0.488 v 0.98 l 0.023,0.368 v 0.343 l 0.028,0.219 v 0.172 l 0.023,0.172"
         style="fill:none;stroke:#ff8000;stroke-width:1.40999997;stroke-linecap:round;stroke-linejoin:round;stroke-miterlimit:10;stroke-dasharray:none;stroke-opacity:1"
         id="path305"
         inkscape:connector-curvature="0" /><path
         d="m 162.133,61.277 0.195,0.246 0.074,0.27 0.047,0.391 v 4.453 l 0.028,0.269"
         style="fill:none;stroke:#ff8000;stroke-width:1.40999997;stroke-linecap:round;stroke-linejoin:round;stroke-miterlimit:10;stroke-dasharray:none;stroke-opacity:1"
         id="path307"
         inkscape:connector-curvature="0" /><path
         d="m 158.98,81.953 0.102,-0.195 0.098,-0.196 0.097,0.219 0.024,0.246 v 0.684 l -0.024,0.394 v 0.415 l -0.023,0.418 v 0.781 l -0.027,0.343 v 0.293 l -0.024,0.219 v 0.196"
         style="fill:none;stroke:#ff8000;stroke-width:1.40999997;stroke-linecap:round;stroke-linejoin:round;stroke-miterlimit:10;stroke-dasharray:none;stroke-opacity:1"
         id="path309"
         inkscape:connector-curvature="0" /><path
         d="m 162.797,81.172 0.023,0.219 0.024,0.269 v 1.371 l -0.024,0.563 v 1.515 l 0.024,0.395"
         style="fill:none;stroke:#ff8000;stroke-width:1.40999997;stroke-linecap:round;stroke-linejoin:round;stroke-miterlimit:10;stroke-dasharray:none;stroke-opacity:1"
         id="path311"
         inkscape:connector-curvature="0" /><path
         d="m 237.441,81.879 0.051,-0.219 0.051,-0.195 0.074,0.316 v 0.344 l -0.027,0.391 -0.047,0.492 -0.051,0.488 -0.051,0.539 -0.046,0.512 -0.024,0.492 -0.074,0.438 -0.051,0.367 -0.051,0.222 -0.047,0.168"
         style="fill:none;stroke:#ff8000;stroke-width:1.40999997;stroke-linecap:round;stroke-linejoin:round;stroke-miterlimit:10;stroke-dasharray:none;stroke-opacity:1"
         id="path313"
         inkscape:connector-curvature="0" /><path
         d="m 241.059,81.316 0.148,-0.097 0.148,0.125 v 0.218 l 0.024,0.344 v 1.395 l -0.024,0.511 -0.05,0.516 -0.047,0.512 -0.051,0.441 -0.023,0.442 v 0.367"
         style="fill:none;stroke:#ff8000;stroke-width:1.40999997;stroke-linecap:round;stroke-linejoin:round;stroke-miterlimit:10;stroke-dasharray:none;stroke-opacity:1"
         id="path315"
         inkscape:connector-curvature="0" /><path
         d="m 237.395,98.543 0.023,0.219 0.023,0.468 v 1.196 l -0.023,0.418 -0.023,0.441 -0.024,0.367 -0.027,0.34 -0.024,0.32 -0.023,0.196 v 0.219"
         style="fill:none;stroke:#ff8000;stroke-width:1.40999997;stroke-linecap:round;stroke-linejoin:round;stroke-miterlimit:10;stroke-dasharray:none;stroke-opacity:1"
         id="path317"
         inkscape:connector-curvature="0" /><path
         d="m 241.23,97.934 0.125,0.316 0.075,0.293 0.047,0.465 -0.071,0.488 -0.074,0.563 -0.102,0.613 -0.097,0.613 -0.098,0.535 -0.097,0.492 -0.051,0.317 -0.075,0.246"
         style="fill:none;stroke:#ff8000;stroke-width:1.40999997;stroke-linecap:round;stroke-linejoin:round;stroke-miterlimit:10;stroke-dasharray:none;stroke-opacity:1"
         id="path319"
         inkscape:connector-curvature="0" /><path
         d="m 157.383,99.352 v -0.368 l 0.051,0.172 0.023,0.219 0.023,0.293 v 0.344 l 0.024,0.414 v 0.418 l 0.027,0.441 0.024,0.414 v 0.418 l 0.023,0.367 0.027,0.266 0.047,0.27 0.028,0.171"
         style="fill:none;stroke:#ff8000;stroke-width:1.40999997;stroke-linecap:round;stroke-linejoin:round;stroke-miterlimit:10;stroke-dasharray:none;stroke-opacity:1"
         id="path321"
         inkscape:connector-curvature="0" /><path
         d="m 161.984,98.398 v 0.196 l -0.05,0.39 -0.075,0.293 -0.074,0.391 -0.097,0.465 -0.075,0.465 -0.023,0.464 -0.051,0.465 -0.023,0.493 -0.024,0.437 -0.027,0.395 v 0.265 l 0.027,0.27"
         style="fill:none;stroke:#ff8000;stroke-width:1.40999997;stroke-linecap:round;stroke-linejoin:round;stroke-miterlimit:10;stroke-dasharray:none;stroke-opacity:1"
         id="path323"
         inkscape:connector-curvature="0" /><path
         d="m 197.289,118.484 0.199,-0.046 0.121,-0.098 0.223,-0.172 0.148,-0.098 0.247,-0.148 0.293,-0.149 0.222,0.051 0.047,0.27 v 1.199 l -0.023,0.367 -0.047,0.414 -0.028,0.418 -0.046,0.391 v 0.367 l -0.028,0.246"
         style="fill:none;stroke:#ff8000;stroke-width:1.40999997;stroke-linecap:round;stroke-linejoin:round;stroke-miterlimit:10;stroke-dasharray:none;stroke-opacity:1"
         id="path325"
         inkscape:connector-curvature="0" /><path
         d="m 203.613,117.801 -0.051,0.144 -0.144,0.344 -0.102,0.293 -0.046,0.27 -0.051,0.343 -0.047,0.293 -0.027,0.219 v 0.465 l 0.097,0.223"
         style="fill:none;stroke:#ff8000;stroke-width:1.40999997;stroke-linecap:round;stroke-linejoin:round;stroke-miterlimit:10;stroke-dasharray:none;stroke-opacity:1"
         id="path327"
         inkscape:connector-curvature="0" /><path
         d="m 239.609,118.605 0.098,0.27 0.074,0.344 0.047,0.269 0.027,0.27 0.075,0.344 0.047,0.293 0.023,0.218 0.051,0.27 0.051,0.148"
         style="fill:none;stroke:#ff8000;stroke-width:1.40999997;stroke-linecap:round;stroke-linejoin:round;stroke-miterlimit:10;stroke-dasharray:none;stroke-opacity:1"
         id="path329"
         inkscape:connector-curvature="0" /><path
         d="m 243.84,118.484 0.023,0.196 -0.023,0.39 -0.024,0.2 -0.074,0.265 -0.051,0.223 -0.046,0.269 -0.051,0.196 -0.051,0.218"
         style="fill:none;stroke:#ff8000;stroke-width:1.40999997;stroke-linecap:round;stroke-linejoin:round;stroke-miterlimit:10;stroke-dasharray:none;stroke-opacity:1"
         id="path331"
         inkscape:connector-curvature="0" /><path
         d="m 156.203,117.629 0.145,-0.074 0.027,0.172 v 0.488 l -0.051,0.32 -0.051,0.34 -0.046,0.395 -0.051,0.367 -0.047,0.39 -0.051,0.34 -0.023,0.27 0.023,0.269 v 0.172"
         style="fill:none;stroke:#ff8000;stroke-width:1.40999997;stroke-linecap:round;stroke-linejoin:round;stroke-miterlimit:10;stroke-dasharray:none;stroke-opacity:1"
         id="path333"
         inkscape:connector-curvature="0" /><path
         d="m 161.121,117.922 0.051,0.344 0.023,0.316 v 0.832 l -0.023,0.465 -0.074,0.441 -0.051,0.442 -0.047,0.293 v 0.316"
         style="fill:none;stroke:#ff8000;stroke-width:1.40999997;stroke-linecap:round;stroke-linejoin:round;stroke-miterlimit:10;stroke-dasharray:none;stroke-opacity:1"
         id="path335"
         inkscape:connector-curvature="0" /><path
         d="m 71.172,139.648 -0.125,0.321 -0.098,0.269 -0.097,0.465 -0.075,0.465 -0.097,0.609 -0.149,0.711 -0.121,0.809 -0.101,0.855 -0.145,0.953 -0.074,0.93 -0.102,0.93 -0.07,0.855 -0.074,0.785 -0.074,0.661 -0.051,0.562 -0.024,0.344 -0.023,0.195"
         style="fill:none;stroke:#ff8000;stroke-width:1.40999997;stroke-linecap:round;stroke-linejoin:round;stroke-miterlimit:10;stroke-dasharray:none;stroke-opacity:1"
         id="path337"
         inkscape:connector-curvature="0" /><path
         d="m 78.184,142.34 0.046,-0.145 0.075,-0.148 -0.219,0.051 -0.246,0.218 -0.32,0.344 -0.297,0.367 -0.368,0.391 -0.64,1.078 -0.223,0.563 -0.195,0.586 -0.074,0.585 -0.024,0.54 0.098,0.464 0.246,0.391 0.367,0.293 0.492,0.148 0.567,0.075 0.617,-0.098 0.637,-0.195 0.617,-0.293 0.59,-0.395 0.492,-0.39 0.418,-0.442 0.269,-0.437 0.172,-0.418 0.102,-0.414 -0.051,-0.395 -0.121,-0.34 -0.223,-0.344 -0.297,-0.316 -0.32,-0.269 -0.367,-0.223 -0.344,-0.121 -0.32,-0.074 -0.297,-0.075 -0.195,-0.023 h -0.196"
         style="fill:none;stroke:#ff8000;stroke-width:1.40999997;stroke-linecap:round;stroke-linejoin:round;stroke-miterlimit:10;stroke-dasharray:none;stroke-opacity:1"
         id="path339"
         inkscape:connector-curvature="0" /><path
         d="m 86.77,141.438 0.171,0.121 0.024,0.195 0.051,0.344 -0.051,0.488 -0.047,0.586 v 0.711 l -0.023,0.808 v 0.832 l -0.028,0.758 -0.023,0.735 v 0.683 l 0.023,0.539 0.074,0.442 0.098,0.269"
         style="fill:none;stroke:#ff8000;stroke-width:1.40999997;stroke-linecap:round;stroke-linejoin:round;stroke-miterlimit:10;stroke-dasharray:none;stroke-opacity:1"
         id="path341"
         inkscape:connector-curvature="0" /><path
         d="m 93.289,140.945 v 0.418 l -0.047,0.489 -0.148,0.683 -0.149,0.809 -0.222,0.855 -0.121,0.93 -0.075,0.883 -0.074,0.832 -0.023,0.711"
         style="fill:none;stroke:#ff8000;stroke-width:1.40999997;stroke-linecap:round;stroke-linejoin:round;stroke-miterlimit:10;stroke-dasharray:none;stroke-opacity:1"
         id="path343"
         inkscape:connector-curvature="0" /><path
         d="m 156.941,139.16 0.024,0.246 v 1.297 l 0.023,0.242 0.024,0.172"
         style="fill:none;stroke:#ff8000;stroke-width:1.40999997;stroke-linecap:round;stroke-linejoin:round;stroke-miterlimit:10;stroke-dasharray:none;stroke-opacity:1"
         id="path345"
         inkscape:connector-curvature="0" /><path
         d="m 159.793,139.527 0.051,0.172 0.023,0.172 0.024,0.242 v 0.246 l -0.024,0.344 v 0.34 l 0.024,0.32"
         style="fill:none;stroke:#ff8000;stroke-width:1.40999997;stroke-linecap:round;stroke-linejoin:round;stroke-miterlimit:10;stroke-dasharray:none;stroke-opacity:1"
         id="path347"
         inkscape:connector-curvature="0" /><path
         d="m 200.266,137.082 0.05,0.219 0.024,0.246 v 0.269 l -0.024,0.364 v 0.343 l -0.023,0.368 -0.027,0.269 v 0.293 l 0.027,0.195 0.098,0.223"
         style="fill:none;stroke:#ff8000;stroke-width:1.40999997;stroke-linecap:round;stroke-linejoin:round;stroke-miterlimit:10;stroke-dasharray:none;stroke-opacity:1"
         id="path349"
         inkscape:connector-curvature="0" /><path
         d="m 204.055,136.883 0.125,0.125 0.047,0.172 0.101,0.293 0.024,0.316 0.121,0.465 0.101,0.391 0.121,0.441 0.149,0.367"
         style="fill:none;stroke:#ff8000;stroke-width:1.40999997;stroke-linecap:round;stroke-linejoin:round;stroke-miterlimit:10;stroke-dasharray:none;stroke-opacity:1"
         id="path351"
         inkscape:connector-curvature="0" /><path
         d="m 238.648,136.566 h 0.172 l 0.172,0.246 0.051,0.219 0.047,0.293 -0.024,0.321 v 0.339 l -0.023,0.297 -0.051,0.34 -0.023,0.32 -0.051,0.196 -0.023,0.218"
         style="fill:none;stroke:#ff8000;stroke-width:1.40999997;stroke-linecap:round;stroke-linejoin:round;stroke-miterlimit:10;stroke-dasharray:none;stroke-opacity:1"
         id="path353"
         inkscape:connector-curvature="0" /><path
         d="m 243.691,136.418 h 0.223 l 0.172,0.223 0.023,0.195 0.028,0.344 -0.075,0.293 -0.097,0.316 -0.074,0.344 -0.125,0.269 -0.075,0.293 -0.046,0.196"
         style="fill:none;stroke:#ff8000;stroke-width:1.40999997;stroke-linecap:round;stroke-linejoin:round;stroke-miterlimit:10;stroke-dasharray:none;stroke-opacity:1"
         id="path355"
         inkscape:connector-curvature="0" /><path
         d="m 148.254,157.242 0.098,0.121 0.05,0.172 0.051,0.293 v 0.367 l -0.027,0.59 -0.024,0.735 -0.05,0.878 -0.075,1.028 -0.07,1.101 -0.125,1.2 -0.121,1.175 -0.051,1.196 -0.074,1.129 v 1.832 l 0.051,0.636 0.144,0.391"
         style="fill:none;stroke:#ff8000;stroke-width:1.40999997;stroke-linecap:round;stroke-linejoin:round;stroke-miterlimit:10;stroke-dasharray:none;stroke-opacity:1"
         id="path357"
         inkscape:connector-curvature="0" /><path
         d="m 156.227,160.301 -0.149,0.195 -0.195,0.27 -0.321,0.488 -0.445,0.637 -0.418,0.757 -0.465,0.832 -0.418,0.856 -0.371,0.883 -0.269,0.832 -0.149,0.781 -0.05,0.66 0.148,0.567 0.246,0.367 0.395,0.242 0.566,0.051 0.59,-0.098 0.664,-0.246 0.641,-0.414 0.589,-0.539 0.516,-0.613 0.371,-0.661 0.246,-0.66 0.149,-0.66 -0.028,-0.59 -0.148,-0.511 -0.27,-0.442 -0.394,-0.316 -0.442,-0.196 -0.468,-0.097 -0.465,-0.028 -0.445,0.051 -0.391,0.074 -0.274,0.196 -0.195,0.195 -0.023,0.219 0.047,0.222"
         style="fill:none;stroke:#ff8000;stroke-width:1.40999997;stroke-linecap:round;stroke-linejoin:round;stroke-miterlimit:10;stroke-dasharray:none;stroke-opacity:1"
         id="path359"
         inkscape:connector-curvature="0" /><path
         d="m 163.238,159.176 0.121,0.293 0.051,0.316 0.024,0.492 -0.024,0.586 -0.051,0.684 -0.023,0.734 -0.024,0.758 v 1.422 l 0.024,0.609 0.051,0.492 0.121,0.34"
         style="fill:none;stroke:#ff8000;stroke-width:1.40999997;stroke-linecap:round;stroke-linejoin:round;stroke-miterlimit:10;stroke-dasharray:none;stroke-opacity:1"
         id="path361"
         inkscape:connector-curvature="0" /><path
         d="m 166.559,159.348 0.027,0.172 0.023,0.339 v 1.371 l -0.074,0.907 -0.074,1.004 -0.149,2.054 -0.023,0.93 v 1.395"
         style="fill:none;stroke:#ff8000;stroke-width:1.40999997;stroke-linecap:round;stroke-linejoin:round;stroke-miterlimit:10;stroke-dasharray:none;stroke-opacity:1"
         id="path363"
         inkscape:connector-curvature="0" /><path
         d="m 200.047,157.879 0.023,-0.27 v -0.218 l -0.023,0.168 -0.027,0.222 -0.047,0.293 -0.028,0.293 -0.023,0.391 -0.024,0.344 0.024,0.367 v 0.586 l 0.051,0.246 0.195,0.195"
         style="fill:none;stroke:#ff8000;stroke-width:1.40999997;stroke-linecap:round;stroke-linejoin:round;stroke-miterlimit:10;stroke-dasharray:none;stroke-opacity:1"
         id="path365"
         inkscape:connector-curvature="0" /><path
         d="m 204.5,157.094 0.023,0.32 0.024,0.344 v 1.125 l -0.047,0.683 -0.051,0.711 -0.051,0.758 -0.023,0.758 -0.047,0.781"
         style="fill:none;stroke:#ff8000;stroke-width:1.40999997;stroke-linecap:round;stroke-linejoin:round;stroke-miterlimit:10;stroke-dasharray:none;stroke-opacity:1"
         id="path367"
         inkscape:connector-curvature="0" /><path
         d="m 80.594,160.227 v -1.051 0.293 l -0.024,0.293 -0.023,0.418 -0.027,0.465 -0.024,0.535 -0.051,0.539 -0.023,0.515 v 0.907"
         style="fill:none;stroke:#ff8000;stroke-width:1.40999997;stroke-linecap:round;stroke-linejoin:round;stroke-miterlimit:10;stroke-dasharray:none;stroke-opacity:1"
         id="path369"
         inkscape:connector-curvature="0" /><path
         d="m 83.352,158.098 0.121,0.367 0.074,0.344 0.051,0.511 -0.028,0.516 -0.047,0.586 -0.027,0.562 v 0.59 l 0.027,0.512"
         style="fill:none;stroke:#ff8000;stroke-width:1.40999997;stroke-linecap:round;stroke-linejoin:round;stroke-miterlimit:10;stroke-dasharray:none;stroke-opacity:1"
         id="path371"
         inkscape:connector-curvature="0" /><path
         d="m 241.012,156.68 v 0.683 l -0.028,0.293 V 158 l -0.023,0.32 -0.023,0.219 -0.024,0.246 v 0.242"
         style="fill:none;stroke:#ff8000;stroke-width:1.40999997;stroke-linecap:round;stroke-linejoin:round;stroke-miterlimit:10;stroke-dasharray:none;stroke-opacity:1"
         id="path373"
         inkscape:connector-curvature="0" /><path
         d="m 243.398,155.996 0.047,0.145 0.028,0.246 0.023,0.34 v 1.886 l 0.024,0.512 v 0.492"
         style="fill:none;stroke:#ff8000;stroke-width:1.40999997;stroke-linecap:round;stroke-linejoin:round;stroke-miterlimit:10;stroke-dasharray:none;stroke-opacity:1"
         id="path375"
         inkscape:connector-curvature="0" /></g></g></svg>